<?xml version="1.0" encoding="UTF-8"?>
<svg width="109px" height="46px" viewBox="0 0 109 46" version="1.1" xmlns="http://www.w3.org/2000/svg" xmlns:xlink="http://www.w3.org/1999/xlink">
    <!-- Generator: Sketch 49.3 (51167) - http://www.bohemiancoding.com/sketch -->
    <title>Slice</title>
    <desc>Created with Sketch.</desc>
    <defs></defs>
    <g id="Page-1" stroke="none" stroke-width="1" fill="none" fill-rule="evenodd">
        <g id="aergo" transform="translate(0.000000, 12.000000)" fill="#000000" fill-rule="nonzero">
            <path d="M60.571811,0.721102362 C57.476378,0.380944882 54.7040945,1.11228347 52.7311811,2.77905512 C50.8262992,4.39480315 49.8058268,6.75889764 49.8058268,9.63322835 L49.8058268,21.827874 L54.5850394,21.827874 L54.5850394,9.54818898 C54.5850394,8.01748031 55.044252,6.84393701 55.9456693,6.0615748 C56.9491339,5.19417323 58.4968504,4.82 60.435748,4.99007874 L61.1670866,5.05811024 L61.1670866,0.789133858 L60.571811,0.721102362 Z" id="Shape"></path>
            <path d="M97.1897638,0.517007874 C90.9988976,0.517007874 85.9475591,5.31322835 85.9475591,11.1979528 C85.9475591,17.0826772 90.9818898,21.8788976 97.1897638,21.8788976 C103.397638,21.8788976 108.414961,17.0826772 108.414961,11.1979528 C108.414961,5.31322835 103.397638,0.517007874 97.1897638,0.517007874 Z M97.1897638,17.235748 C93.6861417,17.235748 90.8458268,14.5314961 90.8458268,11.1979528 C90.8458268,7.86440945 93.6861417,5.16015748 97.1897638,5.16015748 C100.693386,5.16015748 103.533701,7.86440945 103.533701,11.1979528 C103.533701,14.5314961 100.693386,17.235748 97.1897638,17.235748 Z" id="Shape"></path>
            <path d="M40.9107087,15.6029921 C39.7711811,16.6064567 38.2574803,17.235748 36.5737008,17.235748 C34.923937,17.235748 33.4272441,16.6404724 32.2877165,15.6540157 L47.6798425,9.56519685 C47.6798425,9.56519685 47.6798425,9.54818898 47.6798425,9.54818898 L47.6798425,9.51417323 C46.8294488,4.41181102 42.1862992,0.517007874 36.5907087,0.517007874 C30.3998425,0.517007874 25.3485039,5.31322835 25.3485039,11.1979528 C25.3485039,17.0826772 30.3828346,21.8788976 36.5907087,21.8788976 C39.5670866,21.8788976 42.2883465,20.7733858 44.2952756,18.9705512 L40.9107087,15.6029921 Z M30.2297638,11.1979528 C30.2297638,7.86440945 33.0700787,5.16015748 36.5737008,5.16015748 C38.5466142,5.16015748 40.3154331,6.01055118 41.4719685,7.35417323 L30.2467717,11.6741732 C30.2467717,11.5211024 30.2297638,11.3680315 30.2297638,11.1979528 Z" id="Shape"></path>
            <path d="M23.0014173,11.3 C23.0014173,11.2659843 23.0014173,11.2319685 23.0014173,11.1979528 C23.0014173,5.31322835 17.9670866,0.517007874 11.7762205,0.517007874 C5.58535433,0.517007874 0.534015748,5.31322835 0.534015748,11.1979528 C0.534015748,17.0826772 5.56834646,21.8788976 11.7762205,21.8788976 L18.324252,21.827874 L23.0184252,21.827874 L23.0184252,11.4700787 C23.0014173,11.4190551 23.0014173,11.3680315 23.0014173,11.3 Z M18.1201575,17.235748 L11.7762205,17.235748 C8.27259843,17.235748 5.43228346,14.5314961 5.43228346,11.1979528 C5.43228346,7.86440945 8.27259843,5.16015748 11.7762205,5.16015748 C15.2798425,5.16015748 18.1201575,7.86440945 18.1201575,11.1979528 L18.1201575,17.235748 Z" id="Shape"></path>
            <path d="M64.483622,3.83354331 C65.708189,2.60897638 67.3579528,1.62251969 69.5689764,0.976220472 C70.1132283,0.806141732 73.3107087,0.210866142 76.0829921,1.02724409 C77.3925984,1.4184252 80.4880315,2.88110236 82.035748,5.19417323 C84.4848819,8.83385827 84.1617323,11.572126 83.8896063,13.2559055 C83.4814173,15.7730709 81.8656693,18.0011024 80.1818898,19.5148031 C79.4505512,20.1781102 78.668189,20.7223622 77.9708661,21.1475591 C76.6272441,21.8788976 74.8924409,22.7462992 72.4262992,23.7327559 L72.3930872,23.7456162 C72.9636743,24.7026677 73.4506192,25.5425861 73.8209449,26.2159055 C75.5387402,29.2943307 75.8959055,31.8285039 75.8959055,33.4102362 L75.8959055,33.5292913 L71.0486614,33.5292913 L71.0486614,33.4102362 C71.0486614,32.5428346 70.8615748,30.7229921 69.5519685,28.3588976 C69.131543,27.6021317 68.5448344,26.6125695 67.890493,25.4888612 L66.3714961,26.0458268 C64.5176378,26.7431496 61.0650394,28.0187402 59.7044094,29.8215748 C58.7689764,31.0631496 58.5138583,32.627874 58.4458268,33.444252 L58.4288189,33.5462992 L53.5645669,33.5462992 L53.5645669,33.4272441 C53.6155906,32.3387402 53.9387402,29.5154331 55.7415748,27.1343307 C57.9355906,24.2259843 62.0855118,22.6782677 64.5686614,21.7598425 L65.4700787,21.419685 L65.4782895,21.4165365 L65.4700787,21.4026772 C65.2489764,21.0285039 62.1535433,17.2867717 61.6943307,12.8477165 C61.3719142,9.75930555 61.9976222,6.33227864 64.4836438,3.8335649 L64.483622,3.83354331 Z M67.9685308,7.28443628 L67.9702362,7.28614173 C66.643622,8.95291339 66.4395276,11.1469291 66.6096063,12.3714961 C67.0858268,15.7900787 69.6710236,19.0896063 69.9941732,19.667874 L70.0023081,19.6817033 C72.5661339,18.6799083 74.3494644,17.9662962 75.555748,17.2187402 C75.963937,16.963622 76.4231496,16.6234646 76.8823622,16.2152756 C77.8348031,15.3648819 78.7532283,14.1913386 79.0083465,12.8307087 C79.5866142,9.63322835 78.2770079,7.96645669 77.443622,7.08204724 C76.7973228,6.36771654 75.0285039,5.16015748 72.8004724,5.16015748 C70.4487802,5.21091343 68.9385826,6.10316398 67.9685308,7.28443631 Z" id="Combined-Shape"></path>
        </g>
    </g>
</svg>