<?xml version="1.0" encoding="UTF-8"?>
<svg width="31px" height="34px" viewBox="0 0 31 34" version="1.1" xmlns="http://www.w3.org/2000/svg" xmlns:xlink="http://www.w3.org/1999/xlink">
    <!-- Generator: Sketch 49.3 (51167) - http://www.bohemiancoding.com/sketch -->
    <title>Group 7</title>
    <desc>Created with Sketch.</desc>
    <defs>
        <linearGradient x1="44.723131%" y1="198.421884%" x2="53.3256711%" y2="-29.4832421%" id="linearGradient-1">
            <stop stop-color="#D2D2D2" offset="0%"></stop>
            <stop stop-color="#676767" offset="23.45%"></stop>
            <stop stop-color="#3D3D3D" offset="74.5845376%"></stop>
            <stop stop-color="#3C3C3C" offset="100%"></stop>
        </linearGradient>
        <linearGradient x1="44.723131%" y1="198.421884%" x2="53.3256711%" y2="-29.4832421%" id="linearGradient-2">
            <stop stop-color="#D2D2D2" offset="0%"></stop>
            <stop stop-color="#888888" offset="23.45%"></stop>
            <stop stop-color="#525252" offset="73.9455383%"></stop>
            <stop stop-color="#3C3C3C" offset="100%"></stop>
        </linearGradient>
    </defs>
    <g id="Page-1" stroke="none" stroke-width="1" fill="none" fill-rule="evenodd">
        <g id="Group-7" transform="translate(-2.000000, -1.000000)">
            <rect id="Rectangle-20" fill="#D8D8D8" opacity="0" x="0" y="0.5" width="34" height="34"></rect>
            <path d="M21.3529782,5.72784314 C23.5826278,5.72784314 25.3527312,6.95294118 25.9994998,7.67764706 C26.8334908,8.57490196 28.1440482,10.2658824 27.5653605,13.5098039 C27.3100571,14.8901961 26.390965,16.0807843 25.4378323,16.9435294 L28.7397561,20.2909804 C30.4247584,18.7552941 32.0416798,16.494902 32.4501652,13.9411765 C32.7224888,12.2329412 33.0458731,9.45490196 30.5949606,5.76235294 C29.0461201,3.41568627 25.9484391,1.93176471 24.6378817,1.53490196 C21.863585,0.706666667 18.6637826,1.31058824 18.1191354,1.48313725 C15.9065061,2.13882353 14.2555442,3.13960784 13.030088,4.38196078 L16.502214,7.90196078 C17.4723668,6.69411765 18.9871669,5.77960784 21.3529782,5.72784314 Z" id="Shape" fill="#FF36AD" fill-rule="nonzero"></path>
            <path d="M28.7397561,20.2909804 L25.4378323,16.9435294 C24.9782862,17.3576471 24.5187402,17.7027451 24.1102547,17.9615686 C22.9018187,18.7207843 21.1146951,19.4454902 18.544641,20.4635294 L14.0172611,22.2235294 L13.1151891,22.5686275 C10.6302362,23.5003922 6.47730122,25.0705882 4.28169214,28.0211765 C2.47754825,30.4368627 2.15416396,33.3011765 2.10310329,34.4054902 L2.10310329,34.5262745 L6.97088776,34.5262745 L6.98790798,34.4227451 C7.05598888,33.5945098 7.31129226,32.0070588 8.24740466,30.747451 C9.6090227,28.9184314 13.0641285,27.6243137 14.919333,26.9168627 L16.4511533,26.347451 L20.9785333,24.5701961 C23.446466,23.5694118 25.1825289,22.6894118 26.5271268,21.947451 C27.224956,21.5160784 28.0078864,20.9639216 28.7397561,20.2909804 Z" id="Shape" fill="url(#linearGradient-1)" fill-rule="nonzero"></path>
            <path d="M22.3741918,27.0894118 C21.9997468,26.3992157 21.5061603,25.5364706 20.9274726,24.5529412 L18.544641,20.4462745 C18.2212568,19.8596078 15.6341825,16.5121569 15.1576162,13.0439216 C14.9874139,11.8015686 15.1916566,9.57568627 16.5192342,7.88470588 L13.0471082,4.36470588 C10.5451351,6.90117647 9.91538675,10.3866667 10.238771,13.5270588 C10.6983171,18.0305882 13.7959981,21.8266667 14.0172611,22.2062745 L16.4171129,26.3129412 C17.0809017,27.4690196 17.6766095,28.4870588 18.1021152,29.2635294 C19.4126725,31.6619608 19.599895,33.5082353 19.599895,34.3882353 L19.599895,34.5090196 L24.4506593,34.5090196 L24.4506593,34.3882353 C24.4506593,32.7835294 24.0932345,30.212549 22.3741918,27.0894118 Z" id="Shape" fill="url(#linearGradient-2)" fill-rule="nonzero"></path>
        </g>
    </g>
</svg>