<?xml version="1.0" encoding="UTF-8"?>
<svg width="31px" height="34px" viewBox="0 0 31 34" version="1.1" xmlns="http://www.w3.org/2000/svg" xmlns:xlink="http://www.w3.org/1999/xlink">
    <!-- Generator: Sketch 49.3 (51167) - http://www.bohemiancoding.com/sketch -->
    <title>Group 7</title>
    <desc>Created with Sketch.</desc>
    <defs>
        <linearGradient x1="44.723131%" y1="198.421884%" x2="53.3256711%" y2="-29.4832421%" id="linearGradient-1">
            <stop stop-color="#D2D2D2" offset="0%"></stop>
            <stop stop-color="#676767" offset="23.45%"></stop>
            <stop stop-color="#3D3D3D" offset="74.5845376%"></stop>
            <stop stop-color="#3C3C3C" offset="100%"></stop>
        </linearGradient>
        <linearGradient x1="44.723131%" y1="198.421884%" x2="53.3256711%" y2="-29.4832421%" id="linearGradient-2">
            <stop stop-color="#D2D2D2" offset="0%"></stop>
            <stop stop-color="#888888" offset="23.45%"></stop>
            <stop stop-color="#525252" offset="73.9455383%"></stop>
            <stop stop-color="#3C3C3C" offset="100%"></stop>
        </linearGradient>
    </defs>
    <g id="Page-1" stroke="none" stroke-width="1" fill="none" fill-rule="evenodd">
        <g id="Group-7" transform="translate(-4.000000, -3.000000)">
            <rect id="Rectangle-20" fill="#D8D8D8" opacity="0" x="0" y="0" width="39" height="39"></rect>
            <g id="AERGO_onBrightBG" transform="translate(4.000000, 3.000000)" fill-rule="nonzero">
                <path d="M19.3529782,4.72784314 C21.5826278,4.72784314 23.3527312,5.95294118 23.9994998,6.67764706 C24.8334908,7.57490196 26.1440482,9.26588235 25.5653605,12.5098039 C25.3100571,13.8901961 24.390965,15.0807843 23.4378323,15.9435294 L26.7397561,19.2909804 C28.4247584,17.7552941 30.0416798,15.494902 30.4501652,12.9411765 C30.7224888,11.2329412 31.0458731,8.45490196 28.5949606,4.76235294 C27.0461201,2.41568627 23.9484391,0.931764706 22.6378817,0.534901961 C19.863585,-0.293333333 16.6637826,0.310588235 16.1191354,0.483137255 C13.9065061,1.13882353 12.2555442,2.13960784 11.030088,3.38196078 L14.502214,6.90196078 C15.4723668,5.69411765 16.9871669,4.77960784 19.3529782,4.72784314 Z" id="Shape" fill="#FF36AD"></path>
                <path d="M26.7397561,19.2909804 L23.4378323,15.9435294 C22.9782862,16.3576471 22.5187402,16.7027451 22.1102547,16.9615686 C20.9018187,17.7207843 19.1146951,18.4454902 16.544641,19.4635294 L12.0172611,21.2235294 L11.1151891,21.5686275 C8.63023622,22.5003922 4.47730122,24.0705882 2.28169214,27.0211765 C0.477548248,29.4368627 0.154163965,32.3011765 0.103103289,33.4054902 L0.103103289,33.5262745 L4.97088776,33.5262745 L4.98790798,33.4227451 C5.05598888,32.5945098 5.31129226,31.0070588 6.24740466,29.747451 C7.6090227,27.9184314 11.0641285,26.6243137 12.919333,25.9168627 L14.4511533,25.347451 L18.9785333,23.5701961 C21.446466,22.5694118 23.1825289,21.6894118 24.5271268,20.947451 C25.224956,20.5160784 26.0078864,19.9639216 26.7397561,19.2909804 Z" id="Shape" fill="url(#linearGradient-1)"></path>
                <path d="M20.3741918,26.0894118 C19.9997468,25.3992157 19.5061603,24.5364706 18.9274726,23.5529412 L16.544641,19.4462745 C16.2212568,18.8596078 13.6341825,15.5121569 13.1576162,12.0439216 C12.9874139,10.8015686 13.1916566,8.57568627 14.5192342,6.88470588 L11.0471082,3.36470588 C8.54513509,5.90117647 7.91538675,9.38666667 8.23877104,12.5270588 C8.69831712,17.0305882 11.7959981,20.8266667 12.0172611,21.2062745 L14.4171129,25.3129412 C15.0809017,26.4690196 15.6766095,27.4870588 16.1021152,28.2635294 C17.4126725,30.6619608 17.599895,32.5082353 17.599895,33.3882353 L17.599895,33.5090196 L22.4506593,33.5090196 L22.4506593,33.3882353 C22.4506593,31.7835294 22.0932345,29.212549 20.3741918,26.0894118 Z" id="Shape" fill="url(#linearGradient-2)"></path>
            </g>
        </g>
    </g>
</svg>