<svg xmlns="http://www.w3.org/2000/svg" width="24" height="24" viewBox="0 0 24 24">
    <g fill="#D8D8D8" fill-rule="nonzero" stroke="#707070">
        <path d="M10.12 4.852v-.104H6.206c-.812 0-1.457.645-1.457 1.457v11.59c0 .812.645 1.457 1.457 1.457h11.59c.812 0 1.457-.645 1.457-1.457V13.88h-.104v3.916a1.35 1.35 0 0 1-1.353 1.353H6.205a1.35 1.35 0 0 1-1.353-1.353V6.205c0-.75.604-1.353 1.353-1.353h3.916z"/>
        <path d="M19.066 4.858L12.9 11.024l.076.076 6.166-6.166a.503.503 0 0 0-.076-.076zm.082.083v5.127a.052.052 0 1 0 .104 0v-4.82a.498.498 0 0 0-.104-.307zm-.09-.089a.498.498 0 0 0-.306-.104h-4.82a.052.052 0 1 0 0 .104h5.127z"/>
    </g>
</svg>
