<?xml version="1.0" encoding="UTF-8"?>
<svg width="24px" height="22px" viewBox="0 0 24 22" version="1.1" xmlns="http://www.w3.org/2000/svg" xmlns:xlink="http://www.w3.org/1999/xlink">
    <!-- Generator: Sketch 49.3 (51167) - http://www.bohemiancoding.com/sketch -->
    <title>Shape</title>
    <desc>Created with Sketch.</desc>
    <defs></defs>
    <g id="Page-1" stroke="none" stroke-width="1" fill="none" fill-rule="evenodd">
        <g id="Enable-Dialog" transform="translate(-49.000000, -56.000000)" fill="#000000" fill-rule="nonzero">
            <g id="Group-2" transform="translate(49.000000, 39.500000)">
                <g id="AERGO_onDarkBG" transform="translate(0.500000, 17.000000)">
                    <path d="M22.5014173,10.8 C22.5014173,10.7659843 22.5014173,10.7319685 22.5014173,10.6979528 C22.5014173,4.81322835 17.4670866,0.017007874 11.2762205,0.017007874 C5.08535433,0.017007874 0.034015748,4.81322835 0.034015748,10.6979528 C0.034015748,16.5826772 5.06834646,21.3788976 11.2762205,21.3788976 L17.824252,21.327874 L22.5184252,21.327874 L22.5184252,10.9700787 C22.5014173,10.9190551 22.5014173,10.8680315 22.5014173,10.8 Z M17.6201575,16.735748 L11.2762205,16.735748 C7.77259843,16.735748 4.93228346,14.0314961 4.93228346,10.6979528 C4.93228346,7.36440945 7.77259843,4.66015748 11.2762205,4.66015748 C14.7798425,4.66015748 17.6201575,7.36440945 17.6201575,10.6979528 L17.6201575,16.735748 Z" id="Shape"></path>
                </g>
            </g>
        </g>
    </g>
</svg>