<?xml version="1.0" encoding="UTF-8"?>
<svg width="34px" height="14px" viewBox="0 0 34 14" version="1.1" xmlns="http://www.w3.org/2000/svg" xmlns:xlink="http://www.w3.org/1999/xlink">
    <defs></defs>
    <g stroke="none" stroke-width="1" fill="none" fill-rule="evenodd">
        <g fill="#000021" fill-rule="nonzero" transform="translate(0, 4)">
            <path d="M18.1571593,0.0256093191 C17.2488396,-0.0813837105 16.4348455,0.149186268 15.8574138,0.673987078 C15.2964516,1.1832739 15,1.92848035 15,2.82882669 L15,6.66666667 L16.3999102,6.66666667 L16.3999102,2.80528823 C16.3999102,2.32381959 16.5341618,1.95362371 16.7991715,1.70700478 C17.0921296,1.43363759 17.5477866,1.31594526 18.1172331,1.36783688 L18.3333333,1.38709562 L18.3333333,0.047007925 L18.1571593,0.0256093191 Z" id="Shape"></path>
            <path d="M25.831659,0.000563818459 L22.1549094,0.000563818459 C21.7965848,-0.00550133443 21.4392584,0.0373956772 21.0945232,0.127863104 C18.883897,0.718490558 18.3520296,2.33318149 18.5066228,3.73553516 C18.6550768,5.08016608 19.6741638,6.21658277 19.743926,6.3258437 L19.4459017,6.42892004 C18.6316367,6.70877232 17.2693195,7.17725431 16.5476988,8.05598014 C15.9544406,8.77751455 15.8506344,9.63098669 15.8333333,9.96289252 L15.8333333,10 L17.4283774,10 L17.4311679,9.96701557 C17.4529337,9.71757082 17.5349741,9.24548116 17.8424861,8.86873712 C18.2889645,8.32397864 19.4202292,7.93486544 20.0313465,7.72458969 L20.5336347,7.5524522 C20.7535253,7.89621181 20.945511,8.19977164 21.0850355,8.43117804 C21.5158872,9.14704325 21.577278,9.69850169 21.5756037,9.96392328 L21.5756037,10 L23.1689735,10 L23.1689735,9.96443866 C23.1689735,9.48049522 23.0534472,8.70896878 22.4936749,7.78025092 C22.3708933,7.57409823 22.2079287,7.31640737 22.0209659,7.02418593 C22.644111,6.79763528 23.2512167,6.53513185 23.8386911,6.23822881 C24.6323064,5.83468492 25.5687949,4.98275893 25.7680359,3.88344972 C25.9817874,2.71765626 25.6145589,1.94046062 25.2261227,1.43538653 L25.8333333,1.43538653 L25.831659,0.000563818459 Z M24.1925252,3.71852757 C24.071976,4.33183182 23.462533,4.8173214 23.0607025,5.04975855 C22.6588719,5.28219571 22.0773338,5.49144069 21.2346058,5.79912358 C21.1296834,5.62595532 20.2819325,4.62199172 20.1245489,3.58555908 C20.0274398,2.94854727 20.2919783,1.44105573 22.1532351,1.39570214 C22.881553,1.39570214 23.4636492,1.76368469 23.6779588,1.97653734 C23.9491945,2.24608198 24.3822785,2.74857916 24.1925252,3.71852757 Z" id="Shape"></path>
            <path d="M30.0012621,0 C28.1625647,0 26.6666667,1.49551558 26.6666667,3.33333333 C26.6666667,5.17115109 28.1625647,6.66666667 30.0012621,6.66666667 C31.8399596,6.66666667 33.3333333,5.17115109 33.3333333,3.33333333 C33.3333333,1.49551558 31.8399596,0 30.0012621,0 Z M30.0012621,5.21679138 C28.9607472,5.21679138 28.1171274,4.3735074 28.1171274,3.33333333 C28.1171274,2.29315926 28.9607472,1.44987529 30.0012621,1.44987529 C31.0417771,1.44987529 31.8853969,2.29315926 31.8853969,3.33333333 C31.8853969,4.3735074 31.0417771,5.21679138 30.0012621,5.21679138 Z" id="Shape"></path>
            <path d="M6.66363889,3.36463776 C6.66363889,3.35402376 6.66363889,3.34394046 6.66363889,3.33332646 C6.66363889,1.49498179 5.16842026,0 3.33308102,0 C1.49774178,0 0,1.49551249 0,3.33332646 C0,5.17114043 1.49521863,6.66665292 3.33308102,6.66665292 C4.02606138,6.66866397 4.70338283,6.44997464 5.27590644,6.03936557 L5.27590644,6.64967052 L6.66666667,6.64967052 L6.66666667,3.42036125 C6.66515278,3.39913326 6.66414352,3.38321226 6.66363889,3.36463776 Z M3.33308102,5.21678062 C2.29303863,5.21678062 1.45030656,4.37349839 1.45030656,3.33332646 C1.45030656,2.29315453 2.29354326,1.4498723 3.33308102,1.4498723 C4.37261878,1.4498723 5.2163601,2.29315453 5.2163601,3.33332646 C5.2163601,4.37349839 4.37160952,5.21678062 3.33156713,5.21678062 L3.33308102,5.21678062 Z" id="Shape"></path>
            <path d="M14.1666667,2.82382324 L14.1666667,2.8179856 L14.1666667,2.8094945 C13.9127564,1.21741224 12.5243754,0 10.854154,0 C9.00467195,0 7.5,1.49549594 7.5,3.33328956 C7.5,5.17108319 9.00467195,6.66657913 10.854154,6.66657913 C11.9616725,6.67468857 13.0036599,6.11894268 13.6471664,5.17692082 L12.3512086,4.48701851 C12.0143247,4.90491499 11.5316379,5.16483398 11.0104723,5.20898324 C10.4893066,5.2531325 9.97286254,5.07785241 9.57596994,4.72211599 L14.1666667,2.82382324 Z M10.8516149,1.45038694 C11.4117887,1.44661426 11.9458848,1.69741529 12.3151534,2.13763578 L8.96353849,3.48400668 C8.95947593,3.43412144 8.95693683,3.3842362 8.95693683,3.33382026 C8.95693683,2.29312915 9.80550477,1.44985625 10.8516149,1.44985625 L10.8516149,1.45038694 Z" id="Shape"></path>
        </g>
    </g>
</svg>